<svg width="63" height="63" viewBox="0 0 63 63" fill="none" xmlns="http://www.w3.org/2000/svg">
<rect x="14.6608" y="0.813477" width="50" height="50" rx="25" transform="rotate(16 14.6608 0.813477)" fill="url(#paint0_linear_1_384)"/>
<path d="M31.6331 33.9579C30.0496 33.4972 28.7974 32.7159 27.8766 31.614C26.9618 30.5138 26.4078 29.1414 26.2145 27.4967C26.0272 25.8537 26.2327 24.0009 26.8309 21.9381C27.4211 19.8797 28.2283 18.2127 29.2524 16.937C30.2826 15.6631 31.4744 14.8113 32.8279 14.3815C34.1892 13.9473 35.6594 13.9566 37.2386 14.4094C38.8177 14.8622 40.0664 15.6325 40.9846 16.7204C41.909 17.81 42.4705 19.1679 42.6691 20.7942C42.8695 22.4143 42.6716 24.2527 42.0752 26.3093C41.4814 28.38 40.6668 30.0615 39.6313 31.3538C38.6019 32.6479 37.4078 33.5191 36.0491 33.9674C34.6904 34.4156 33.2184 34.4124 31.6331 33.9579ZM32.5819 30.6491C33.6633 30.9592 34.6825 30.663 35.6396 29.7604C36.5966 28.8578 37.3839 27.3181 38.0014 25.1412C38.4119 23.7096 38.6063 22.4753 38.5844 21.4383C38.5687 20.4031 38.3623 19.5692 37.9652 18.9367C37.5742 18.3059 37.0193 17.8874 36.3004 17.6813C35.2251 17.373 34.2107 17.6639 33.2572 18.5542C32.3037 19.4445 31.5164 20.9609 30.8954 23.1036C30.4796 24.5537 30.2769 25.8055 30.2873 26.8592C30.3056 27.9084 30.5125 28.7524 30.9078 29.3911C31.305 30.0236 31.863 30.443 32.5819 30.6491Z" fill="white"/>
<path d="M28.0759 47.9281L28.2662 47.2645C28.4106 46.7606 28.6499 46.3283 28.9838 45.9675C29.3231 45.6037 29.734 45.3536 30.2164 45.2171C30.7041 45.0776 31.245 45.0931 31.8389 45.2634C32.4411 45.436 32.9106 45.7081 33.2474 46.0795C33.5883 46.4521 33.8021 46.8814 33.8889 47.3673C33.9809 47.8503 33.9541 48.3458 33.8084 48.8537L33.6181 49.5173C33.4737 50.0211 33.2339 50.4555 32.8987 50.8205C32.5647 51.1813 32.1544 51.4294 31.6679 51.5647C31.1802 51.7042 30.6393 51.6887 30.0453 51.5184C29.4432 51.3457 28.9743 51.0717 28.6387 50.6961C28.3019 50.3247 28.0875 49.8975 27.9954 49.4145C27.9046 48.9274 27.9314 48.4319 28.0759 47.9281ZM30.0542 47.7772L29.8639 48.4408C29.7805 48.7316 29.7714 49.026 29.8367 49.3241C29.9061 49.6232 30.1272 49.8263 30.4999 49.9331C30.8727 50.04 31.1631 49.9859 31.3711 49.7707C31.5832 49.5566 31.7321 49.3001 31.8178 49.0011L32.0081 48.3375C32.0939 48.0384 32.1082 47.7411 32.0511 47.4455C31.994 47.1498 31.773 46.9468 31.3879 46.8364C31.0192 46.7306 30.7262 46.7863 30.5089 47.0032C30.2915 47.2202 30.1399 47.4782 30.0542 47.7772ZM23.683 38.8751L23.8733 38.2115C24.0189 37.7035 24.2608 37.2697 24.5989 36.9101C24.9381 36.5463 25.349 36.2962 25.8315 36.1597C26.318 36.0243 26.8542 36.0406 27.4399 36.2086C28.0462 36.3824 28.5177 36.6551 28.8545 37.0265C29.1913 37.3979 29.4051 37.8272 29.496 38.3143C29.588 38.7973 29.5612 39.2928 29.4156 39.8007L29.2253 40.4643C29.0796 40.9722 28.8378 41.406 28.4997 41.7657C28.1657 42.1265 27.7554 42.3746 27.2689 42.51C26.7876 42.6424 26.2479 42.6228 25.6499 42.4513C25.0518 42.2799 24.5823 42.0078 24.2414 41.6352C23.9058 41.2597 23.6914 40.8325 23.5982 40.3536C23.5103 39.8717 23.5385 39.3789 23.683 38.8751ZM25.6736 38.7277L25.4833 39.3913C25.3976 39.6903 25.3879 39.9868 25.4544 40.2807C25.5249 40.5758 25.7404 40.775 26.1009 40.8784C26.4778 40.9864 26.7702 40.9329 26.9782 40.7177C27.1903 40.5036 27.3392 40.2471 27.425 39.9481L27.6152 39.2845C27.701 38.9854 27.7153 38.6881 27.6582 38.3924C27.6012 38.0968 27.378 37.8932 26.9889 37.7816C26.6243 37.677 26.3348 37.7359 26.1204 37.9581C25.9059 38.1803 25.757 38.4369 25.6736 38.7277ZM21.7526 48.6684L34.0123 38.5653L35.6221 39.0269L23.3624 49.13L21.7526 48.6684Z" fill="white"/>
<defs>
<linearGradient id="paint0_linear_1_384" x1="14.6608" y1="50.8135" x2="42.7422" y2="-9.40732" gradientUnits="userSpaceOnUse">
<stop stop-color="#2600FC"/>
<stop offset="1" stop-color="#FF00EA"/>
</linearGradient>
</defs>
</svg>
