<svg width="63" height="63" viewBox="0 0 63 63" fill="none" xmlns="http://www.w3.org/2000/svg">
<rect x="14.6608" y="0.973633" width="50" height="50" rx="25" transform="rotate(16 14.6608 0.973633)" fill="url(#paint0_linear_1_519)"/>
<path d="M23.1687 11.2804L18.1572 28.7579L14.462 27.6983L18.4678 13.7283L18.3654 13.6989L13.6436 15.0602L14.5832 11.7832L19.6954 10.2845L23.1687 11.2804ZM29.0537 32.298C27.5875 31.8714 26.428 31.148 25.5754 30.1277C24.7284 29.1091 24.2154 27.8383 24.0364 26.3154C23.8631 24.7942 24.0533 23.0786 24.6071 21.1686C25.1536 19.2627 25.901 17.7192 26.8493 16.538C27.8032 15.3585 28.9068 14.5697 30.1599 14.1717C31.4204 13.7697 32.7818 13.7783 34.2439 14.1976C35.706 14.6168 36.8622 15.3301 37.7125 16.3374C38.5684 17.3463 39.0883 18.6036 39.2722 20.1094C39.4578 21.6096 39.2745 23.3118 38.7223 25.216C38.1725 27.1333 37.4182 28.6903 36.4594 29.8869C35.5062 31.0851 34.4006 31.8918 33.1425 32.3068C31.8845 32.7218 30.5215 32.7189 29.0537 32.298ZM29.9322 29.2343C30.9335 29.5215 31.8772 29.2472 32.7633 28.4115C33.6495 27.5758 34.3784 26.1501 34.9503 24.1344C35.3304 22.8088 35.5103 21.666 35.4901 20.7058C35.4756 19.7473 35.2844 18.9752 34.9167 18.3895C34.5547 17.8054 34.0408 17.418 33.3752 17.2271C32.3796 16.9416 31.4403 17.211 30.5575 18.0354C29.6746 18.8597 28.9456 20.2638 28.3706 22.2478C27.9856 23.5904 27.7979 24.7496 27.8076 25.7251C27.8245 26.6967 28.016 27.4781 28.3821 28.0695C28.7498 28.6552 29.2665 29.0435 29.9322 29.2343ZM45.5988 37.0423C44.1326 36.6157 42.9732 35.8923 42.1206 34.872C41.2736 33.8533 40.7606 32.5825 40.5816 31.0597C40.4082 29.5384 40.5985 27.8228 41.1523 25.9128C41.6988 24.0069 42.4462 22.4634 43.3944 21.2822C44.3484 20.1027 45.4519 19.3139 46.7051 18.916C47.9656 18.5139 49.3269 18.5225 50.7891 18.9418C52.2512 19.3611 53.4074 20.0743 54.2576 21.0816C55.1135 22.0905 55.6335 23.3479 55.8174 24.8537C56.0029 26.3538 55.8196 28.056 55.2674 29.9603C54.7176 31.8776 53.9633 33.4345 53.0045 34.6311C52.0514 35.8294 50.9458 36.636 49.6877 37.051C48.4296 37.4661 47.0667 37.4632 45.5988 37.0423ZM46.4773 33.9786C47.4787 34.2657 48.4224 33.9914 49.3085 33.1557C50.1946 32.32 50.9236 30.8943 51.4954 28.8787C51.8755 27.5531 52.0555 26.4102 52.0353 25.4501C52.0207 24.4915 51.8296 23.7194 51.4619 23.1337C51.0998 22.5497 50.586 22.1622 49.9204 21.9713C48.9247 21.6859 47.9855 21.9553 47.1026 22.7796C46.2197 23.6039 45.4908 25.0081 44.9158 26.992C44.5308 28.3347 44.3431 29.4938 44.3527 30.4694C44.3697 31.4409 44.5612 32.2224 44.9273 32.8137C45.295 33.3994 45.8117 33.7877 46.4773 33.9786Z" fill="white"/>
<path d="M27.576 47.9447L27.7663 47.2811C27.9107 46.7772 28.15 46.3449 28.484 45.9841C28.8232 45.6203 29.2341 45.3702 29.7165 45.2337C30.2043 45.0942 30.7451 45.1097 31.3391 45.28C31.9412 45.4526 32.4107 45.7247 32.7475 46.0961C33.0884 46.4687 33.3022 46.898 33.389 47.3839C33.481 47.8669 33.4542 48.3624 33.3085 48.8703L33.1183 49.5339C32.9738 50.0377 32.734 50.4721 32.3988 50.8371C32.0648 51.1979 31.6545 51.446 31.168 51.5813C30.6803 51.7208 30.1394 51.7053 29.5455 51.535C28.9433 51.3623 28.4744 51.0883 28.1388 50.7127C27.802 50.3413 27.5876 49.9141 27.4956 49.4311C27.4047 48.944 27.4315 48.4485 27.576 47.9447ZM29.5543 47.7938L29.364 48.4574C29.2806 48.7482 29.2716 49.0427 29.3368 49.3407C29.4062 49.6398 29.6273 49.8429 30 49.9497C30.3728 50.0566 30.6632 50.0025 30.8712 49.7873C31.0833 49.5732 31.2322 49.3167 31.3179 49.0177L31.5082 48.3541C31.594 48.055 31.6083 47.7577 31.5512 47.4621C31.4941 47.1664 31.2731 46.9634 30.888 46.853C30.5194 46.7472 30.2263 46.8029 30.009 47.0198C29.7916 47.2368 29.64 47.4948 29.5543 47.7938ZM23.1831 38.8917L23.3734 38.2281C23.5191 37.7201 23.7609 37.2863 24.099 36.9267C24.4383 36.5629 24.8491 36.3128 25.3316 36.1763C25.8181 36.0409 26.3543 36.0572 26.9401 36.2252C27.5463 36.399 28.0178 36.6717 28.3546 37.0431C28.6914 37.4145 28.9053 37.8438 28.9961 38.3309C29.0881 38.8139 29.0613 39.3094 28.9157 39.8173L28.7254 40.4809C28.5797 40.9888 28.3379 41.4226 27.9998 41.7823C27.6658 42.1431 27.2555 42.3912 26.769 42.5266C26.2877 42.659 25.748 42.6394 25.15 42.4679C24.5519 42.2965 24.0824 42.0244 23.7415 41.6518C23.4059 41.2763 23.1915 40.8491 23.0983 40.3702C23.0104 39.8883 23.0386 39.3955 23.1831 38.8917ZM25.1737 38.7443L24.9834 39.4079C24.8977 39.7069 24.888 40.0034 24.9545 40.2973C25.025 40.5924 25.2406 40.7916 25.601 40.895C25.9779 41.003 26.2703 40.9495 26.4783 40.7343C26.6904 40.5202 26.8393 40.2637 26.9251 39.9647L27.1154 39.3011C27.2011 39.002 27.2154 38.7047 27.1584 38.409C27.1013 38.1134 26.8782 37.9098 26.489 37.7982C26.1244 37.6936 25.8349 37.7525 25.6205 37.9747C25.406 38.1969 25.2571 38.4535 25.1737 38.7443ZM21.2527 48.685L33.5124 38.5819L35.1222 39.0435L22.8625 49.1466L21.2527 48.685Z" fill="white"/>
<defs>
<linearGradient id="paint0_linear_1_519" x1="14.6608" y1="50.9736" x2="42.7422" y2="-9.24717" gradientUnits="userSpaceOnUse">
<stop stop-color="#2600FC"/>
<stop offset="1" stop-color="#FF00EA"/>
</linearGradient>
</defs>
</svg>
