<svg width="63" height="63" viewBox="0 0 63 63" fill="none" xmlns="http://www.w3.org/2000/svg">
<rect x="14.6608" y="0.813477" width="50" height="50" rx="25" transform="rotate(16 14.6608 0.813477)" fill="url(#paint0_linear_1_411)"/>
<path d="M17.3134 28.3676L18.0769 25.705L25.9499 21.7285C26.6258 21.3682 27.2017 21.0346 27.6776 20.7278C28.1592 20.4226 28.5501 20.1006 28.8504 19.7619C29.1523 19.4174 29.3694 19.0148 29.5015 18.554C29.6484 18.0419 29.6582 17.5676 29.5309 17.1309C29.4053 16.6885 29.1691 16.3099 28.8223 15.9949C28.4771 15.6743 28.0485 15.4405 27.5364 15.2937C27.0016 15.1404 26.5041 15.1147 26.0439 15.2167C25.5836 15.3187 25.1875 15.5406 24.8555 15.8826C24.5235 16.2245 24.2775 16.6743 24.1176 17.2318L20.6102 16.2261C20.9381 15.0825 21.4816 14.164 22.2408 13.4704C23 12.7769 23.9121 12.3334 24.9773 12.1402C26.0425 11.9469 27.1839 12.0248 28.4014 12.3739C29.653 12.7328 30.6789 13.2671 31.479 13.9768C32.2864 14.6824 32.8372 15.4991 33.1315 16.427C33.4257 17.3549 33.4284 18.3224 33.1397 19.3294C32.9504 19.9893 32.6328 20.6032 32.1867 21.1711C31.7464 21.7406 31.0837 22.3232 30.1986 22.9191C29.3151 23.5093 28.1166 24.1785 26.6029 24.9266L23.3343 26.6954L23.3 26.8148L30.6392 28.9193L29.7729 31.9403L17.3134 28.3676ZM38.7653 34.7774C37.5592 34.4316 36.5475 33.9014 35.7303 33.1868C34.9189 32.4739 34.3489 31.6486 34.0206 30.7109C33.6922 29.7732 33.661 28.7976 33.927 27.7841L37.5113 28.8118C37.357 29.5003 37.484 30.1309 37.8924 30.7036C38.3008 31.2763 38.8691 31.6671 39.5973 31.8759C40.1776 32.0423 40.7264 32.0611 41.2435 31.9323C41.768 31.7995 42.2215 31.5386 42.604 31.1495C42.9938 30.7564 43.2751 30.2583 43.4481 29.6553C43.6242 29.0408 43.6484 28.4628 43.5204 27.9213C43.3982 27.3813 43.147 26.9152 42.7669 26.523C42.3868 26.1308 41.9046 25.8478 41.3202 25.6741C40.8082 25.5273 40.2802 25.4898 39.7362 25.5616C39.198 25.6351 38.7429 25.8156 38.3711 26.103L35.2544 24.572L38.725 15.5928L49.4095 18.6565L48.5433 21.6775L40.9054 19.4874L39.1978 23.7356L39.3002 23.765C39.7314 23.4207 40.2978 23.1952 40.9995 23.0885C41.7012 22.9819 42.4361 23.0387 43.2042 23.2589C44.2567 23.5607 45.1244 24.0774 45.8075 24.8089C46.4905 25.5404 46.9469 26.4071 47.1769 27.4089C47.4084 28.405 47.3607 29.4627 47.0336 30.5818C46.7016 31.7611 46.1284 32.7297 45.3138 33.4874C44.5067 34.2411 43.5359 34.7385 42.4016 34.9797C41.2745 35.2168 40.0625 35.1494 38.7653 34.7774Z" fill="white"/>
<path d="M27.4446 47.7469L27.6349 47.0833C27.7793 46.5795 28.0186 46.1471 28.3526 45.7863C28.6918 45.4226 29.1027 45.1724 29.5851 45.0359C30.0729 44.8965 30.6137 44.9119 31.2077 45.0822C31.8098 45.2549 32.2793 45.5269 32.6161 45.8984C32.957 46.271 33.1708 46.7002 33.2576 47.1862C33.3496 47.6691 33.3228 48.1646 33.1771 48.6726L32.9869 49.3362C32.8424 49.84 32.6026 50.2744 32.2674 50.6393C31.9334 51.0002 31.5231 51.2482 31.0366 51.3836C30.5489 51.523 30.008 51.5076 29.4141 51.3373C28.8119 51.1646 28.343 50.8905 28.0074 50.515C27.6706 50.1435 27.4562 49.7163 27.3641 49.2333C27.2733 48.7462 27.3001 48.2508 27.4446 47.7469ZM29.4229 47.596L29.2326 48.2596C29.1492 48.5505 29.1402 48.8449 29.2054 49.1429C29.2748 49.4421 29.4959 49.6451 29.8686 49.752C30.2414 49.8589 30.5318 49.8047 30.7398 49.5895C30.9519 49.3755 31.1008 49.1189 31.1865 48.8199L31.3768 48.1563C31.4626 47.8573 31.4769 47.56 31.4198 47.2643C31.3627 46.9686 31.1417 46.7656 30.7566 46.6552C30.388 46.5495 30.0949 46.6051 29.8776 46.8221C29.6602 47.039 29.5086 47.297 29.4229 47.596ZM23.0517 38.6939L23.242 38.0303C23.3876 37.5224 23.6295 37.0886 23.9676 36.7289C24.3069 36.3652 24.7177 36.115 25.2002 35.9785C25.6867 35.8432 26.2229 35.8595 26.8086 36.0275C27.4149 36.2013 27.8864 36.4739 28.2232 36.8454C28.56 37.2168 28.7739 37.646 28.8647 38.1331C28.9567 38.6161 28.9299 39.1116 28.7843 39.6195L28.594 40.2831C28.4483 40.7911 28.2065 41.2249 27.8684 41.5845C27.5344 41.9454 27.1241 42.1935 26.6376 42.3288C26.1563 42.4612 25.6166 42.4417 25.0186 42.2702C24.4205 42.0987 23.951 41.8267 23.6101 41.4541C23.2745 41.0785 23.0601 40.6513 22.9669 40.1724C22.879 39.6906 22.9072 39.1978 23.0517 38.6939ZM25.0423 38.5466L24.852 39.2102C24.7663 39.5092 24.7566 39.8056 24.8231 40.0996C24.8936 40.3946 25.1091 40.5939 25.4696 40.6972C25.8465 40.8053 26.1389 40.7517 26.3469 40.5365C26.559 40.3225 26.7079 40.0659 26.7937 39.7669L26.984 39.1033C27.0697 38.8043 27.084 38.5069 27.0269 38.2113C26.9699 37.9156 26.7468 37.712 26.3576 37.6004C25.993 37.4959 25.7035 37.5547 25.4891 37.777C25.2746 37.9992 25.1257 38.2557 25.0423 38.5466ZM21.1213 48.4872L33.381 38.3842L34.9908 38.8458L22.7311 48.9488L21.1213 48.4872Z" fill="white"/>
<defs>
<linearGradient id="paint0_linear_1_411" x1="14.6608" y1="50.8135" x2="42.7422" y2="-9.40732" gradientUnits="userSpaceOnUse">
<stop stop-color="#2600FC"/>
<stop offset="1" stop-color="#FF00EA"/>
</linearGradient>
</defs>
</svg>
