<svg width="63" height="63" viewBox="0 0 63 63" fill="none" xmlns="http://www.w3.org/2000/svg">
<rect x="14.6608" y="0.813477" width="50" height="50" rx="25" transform="rotate(16 14.6608 0.813477)" fill="url(#paint0_linear_1_438)"/>
<path d="M22.8983 30.2265C21.6922 29.8807 20.6805 29.3505 19.8634 28.6359C19.0519 27.9229 18.482 27.0976 18.1536 26.16C17.8252 25.2223 17.794 24.2467 18.06 23.2331L21.6443 24.2609C21.49 24.9494 21.617 25.5799 22.0254 26.1527C22.4338 26.7254 23.0021 27.1162 23.7303 27.325C24.3106 27.4914 24.8594 27.5102 25.3765 27.3814C25.901 27.2486 26.3545 26.9877 26.737 26.5986C27.1268 26.2055 27.4081 25.7074 27.5811 25.1043C27.7573 24.4899 27.7814 23.9119 27.6535 23.3703C27.5312 22.8304 27.28 22.3643 26.8999 21.9721C26.5198 21.5799 26.0376 21.2969 25.4532 21.1232C24.9412 20.9764 24.4132 20.9389 23.8693 21.0107C23.331 21.0842 22.876 21.2646 22.5042 21.5521L19.3874 20.0211L22.8581 11.0418L33.5425 14.1056L32.6763 17.1266L25.0384 14.9364L23.3308 19.1847L23.4332 19.214C23.8644 18.8697 24.4308 18.6443 25.1325 18.5376C25.8342 18.431 26.5691 18.4878 27.3372 18.708C28.3897 19.0098 29.2575 19.5265 29.9405 20.258C30.6235 20.9895 31.08 21.8562 31.3099 22.858C31.5415 23.8541 31.4937 24.9117 31.1666 26.0309C30.8346 27.2102 30.2614 28.1787 29.4469 28.9365C28.6397 29.6901 27.6689 30.1876 26.5346 30.4288C25.4076 30.6659 24.1955 30.5985 22.8983 30.2265ZM38.8152 34.9476C37.349 34.521 36.1895 33.7976 35.3369 32.7773C34.4899 31.7586 33.9769 30.4879 33.7979 28.965C33.6245 27.4437 33.8148 25.7281 34.3686 23.8182C34.9151 21.9123 35.6625 20.3687 36.6108 19.1876C37.5647 18.008 38.6682 17.2193 39.9214 16.8213C41.1819 16.4193 42.5432 16.4279 44.0054 16.8471C45.4675 17.2664 46.6237 17.9797 47.474 18.9869C48.3299 19.9958 48.8498 21.2532 49.0337 22.759C49.2193 24.2591 49.0359 25.9613 48.4837 27.8656C47.934 29.7829 47.1797 31.3398 46.2208 32.5365C45.2677 33.7347 44.1621 34.5413 42.904 34.9564C41.646 35.3714 40.283 35.3685 38.8152 34.9476ZM39.6937 31.8839C40.695 32.171 41.6387 31.8967 42.5248 31.061C43.411 30.2253 44.1399 28.7997 44.7118 26.784C45.0919 25.4584 45.2718 24.3155 45.2516 23.3554C45.237 22.3969 45.0459 21.6248 44.6782 21.0391C44.3162 20.455 43.8023 20.0675 43.1367 19.8767C42.1411 19.5912 41.2018 19.8606 40.3189 20.6849C39.4361 21.5093 38.7071 22.9134 38.1321 24.8973C37.7471 26.24 37.5594 27.3991 37.569 28.3747C37.586 29.3462 37.7775 30.1277 38.1436 30.7191C38.5113 31.3048 39.028 31.693 39.6937 31.8839Z" fill="white"/>
<path d="M27.4449 47.7469L27.6352 47.0833C27.7796 46.5795 28.0189 46.1471 28.3529 45.7863C28.6921 45.4226 29.103 45.1724 29.5854 45.0359C30.0732 44.8965 30.614 44.9119 31.208 45.0822C31.8101 45.2549 32.2796 45.5269 32.6164 45.8984C32.9573 46.271 33.1711 46.7002 33.2579 47.1862C33.3499 47.6691 33.3231 48.1646 33.1774 48.6726L32.9872 49.3362C32.8427 49.84 32.6029 50.2744 32.2677 50.6393C31.9337 51.0002 31.5234 51.2482 31.0369 51.3836C30.5492 51.523 30.0083 51.5076 29.4144 51.3373C28.8122 51.1646 28.3433 50.8905 28.0077 50.515C27.6709 50.1435 27.4565 49.7163 27.3644 49.2333C27.2736 48.7462 27.3004 48.2508 27.4449 47.7469ZM29.4232 47.596L29.2329 48.2596C29.1495 48.5505 29.1405 48.8449 29.2057 49.1429C29.2751 49.4421 29.4962 49.6451 29.8689 49.752C30.2417 49.8589 30.5321 49.8047 30.7401 49.5895C30.9522 49.3755 31.1011 49.1189 31.1868 48.8199L31.3771 48.1563C31.4629 47.8573 31.4772 47.56 31.4201 47.2643C31.363 46.9686 31.142 46.7656 30.7569 46.6552C30.3883 46.5495 30.0952 46.6051 29.8779 46.8221C29.6605 47.039 29.5089 47.297 29.4232 47.596ZM23.052 38.6939L23.2423 38.0303C23.388 37.5224 23.6298 37.0886 23.9679 36.7289C24.3072 36.3652 24.718 36.115 25.2005 35.9785C25.687 35.8432 26.2232 35.8595 26.809 36.0275C27.4152 36.2013 27.8867 36.4739 28.2235 36.8454C28.5603 37.2168 28.7742 37.646 28.865 38.1331C28.957 38.6161 28.9302 39.1116 28.7846 39.6195L28.5943 40.2831C28.4486 40.7911 28.2068 41.2249 27.8687 41.5845C27.5347 41.9454 27.1244 42.1935 26.6379 42.3288C26.1566 42.4612 25.6169 42.4417 25.0189 42.2702C24.4208 42.0987 23.9513 41.8267 23.6104 41.4541C23.2748 41.0785 23.0604 40.6513 22.9672 40.1724C22.8793 39.6906 22.9075 39.1978 23.052 38.6939ZM25.0426 38.5466L24.8523 39.2102C24.7666 39.5092 24.7569 39.8056 24.8234 40.0996C24.8939 40.3946 25.1094 40.5939 25.4699 40.6972C25.8468 40.8053 26.1392 40.7517 26.3472 40.5365C26.5593 40.3225 26.7082 40.0659 26.794 39.7669L26.9843 39.1033C27.07 38.8043 27.0843 38.5069 27.0273 38.2113C26.9702 37.9156 26.7471 37.712 26.3579 37.6004C25.9933 37.4959 25.7038 37.5547 25.4894 37.777C25.2749 37.9992 25.126 38.2557 25.0426 38.5466ZM21.1216 48.4872L33.3813 38.3842L34.9911 38.8458L22.7314 48.9488L21.1216 48.4872Z" fill="white"/>
<defs>
<linearGradient id="paint0_linear_1_438" x1="14.6608" y1="50.8135" x2="42.7422" y2="-9.40732" gradientUnits="userSpaceOnUse">
<stop stop-color="#2600FC"/>
<stop offset="1" stop-color="#FF00EA"/>
</linearGradient>
</defs>
</svg>
