<svg width="63" height="63" viewBox="0 0 63 63" fill="none" xmlns="http://www.w3.org/2000/svg">
<rect x="14.6608" y="0.973633" width="50" height="50" rx="25" transform="rotate(16 14.6608 0.973633)" fill="url(#paint0_linear_1_465)"/>
<path d="M18.7446 28.9257L30.101 16.6662L30.1352 16.5468L21.6952 14.1266L22.5614 11.1056L34.8247 14.622L33.9462 17.6857L22.5593 30.0195L18.7446 28.9257ZM38.4257 34.8278C37.2196 34.4819 36.208 33.9517 35.3908 33.2371C34.5793 32.5242 34.0094 31.6989 33.681 30.7612C33.3527 29.8235 33.3215 28.8479 33.5875 27.8344L37.1717 28.8621C37.0174 29.5506 37.1445 30.1812 37.5528 30.7539C37.9612 31.3266 38.5295 31.7174 39.2577 31.9262C39.8381 32.0926 40.3868 32.1114 40.904 31.9827C41.4285 31.8498 41.882 31.5889 42.2644 31.1998C42.6542 30.8067 42.9356 30.3086 43.1085 29.7056C43.2847 29.0911 43.3088 28.5131 43.1809 27.9716C43.0586 27.4316 42.8075 26.9656 42.4274 26.5733C42.0473 26.1811 41.565 25.8982 40.9807 25.7244C40.4686 25.5776 39.9406 25.5401 39.3967 25.612C38.8584 25.6854 38.4034 25.8659 38.0316 26.1533L34.9149 24.6224L38.3855 15.6431L49.07 18.7068L48.2037 21.7278L40.5658 19.5377L38.8582 23.7859L38.9606 23.8153C39.3918 23.471 39.9583 23.2455 40.66 23.1389C41.3617 23.0322 42.0965 23.089 42.8646 23.3092C43.9171 23.611 44.7849 24.1277 45.4679 24.8592C46.1509 25.5907 46.6074 26.4574 46.8373 27.4592C47.0689 28.4553 47.0211 29.513 46.6941 30.6321C46.3621 31.8114 45.7888 32.78 44.9743 33.5377C44.1671 34.2914 43.1963 34.7888 42.062 35.03C40.935 35.2671 39.7229 35.1997 38.4257 34.8278Z" fill="white"/>
<path d="M27.4373 47.9051L27.6276 47.2415C27.7721 46.7377 28.0113 46.3054 28.3453 45.9445C28.6846 45.5808 29.0954 45.3306 29.5779 45.1941C30.0656 45.0547 30.6064 45.0701 31.2004 45.2404C31.8026 45.4131 32.272 45.6851 32.6088 46.0566C32.9497 46.4292 33.1636 46.8584 33.2503 47.3444C33.3423 47.8273 33.3155 48.3228 33.1699 48.8308L32.9796 49.4944C32.8351 49.9982 32.5953 50.4326 32.2601 50.7975C31.9261 51.1584 31.5159 51.4064 31.0293 51.5418C30.5416 51.6812 30.0008 51.6658 29.4068 51.4955C28.8046 51.3228 28.3358 51.0487 28.0001 50.6732C27.6633 50.3017 27.4489 49.8745 27.3569 49.3915C27.266 48.9044 27.2928 48.409 27.4373 47.9051ZM29.4156 47.7542L29.2253 48.4178C29.142 48.7087 29.1329 49.0031 29.1982 49.3011C29.2675 49.6003 29.4886 49.8033 29.8614 49.9102C30.2341 50.0171 30.5245 49.9629 30.7325 49.7477C30.9446 49.5337 31.0935 49.2772 31.1793 48.9781L31.3696 48.3145C31.4553 48.0155 31.4696 47.7182 31.4126 47.4225C31.3555 47.1268 31.1344 46.9238 30.7494 46.8134C30.3807 46.7077 30.0877 46.7633 29.8703 46.9803C29.6529 47.1972 29.5014 47.4552 29.4156 47.7542ZM23.0445 38.8521L23.2347 38.1885C23.3804 37.6806 23.6223 37.2468 23.9603 36.8871C24.2996 36.5234 24.7105 36.2732 25.1929 36.1367C25.6795 36.0014 26.2156 36.0177 26.8014 36.1857C27.4076 36.3595 27.8792 36.6321 28.216 37.0036C28.5528 37.375 28.7666 37.8042 28.8574 38.2913C28.9495 38.7743 28.9227 39.2698 28.777 39.7777L28.5867 40.4413C28.4411 40.9493 28.1992 41.3831 27.8611 41.7427C27.5271 42.1036 27.1169 42.3517 26.6303 42.487C26.149 42.6194 25.6094 42.5999 25.0113 42.4284C24.4133 42.2569 23.9438 41.9849 23.6029 41.6123C23.2672 41.2367 23.0528 40.8095 22.9596 40.3306C22.8717 39.8488 22.9 39.356 23.0445 38.8521ZM25.0351 38.7048L24.8448 39.3684C24.759 39.6674 24.7494 39.9639 24.8158 40.2578C24.8864 40.5528 25.1019 40.7521 25.4624 40.8554C25.8392 40.9635 26.1316 40.9099 26.3396 40.6947C26.5517 40.4807 26.7007 40.2241 26.7864 39.9251L26.9767 39.2615C27.0624 38.9625 27.0768 38.6651 27.0197 38.3695C26.9626 38.0738 26.7395 37.8702 26.3503 37.7586C25.9858 37.6541 25.6963 37.7129 25.4818 37.9352C25.2674 38.1574 25.1184 38.4139 25.0351 38.7048ZM21.114 48.6454L33.3737 38.5424L34.9836 39.004L22.7239 49.107L21.114 48.6454Z" fill="white"/>
<defs>
<linearGradient id="paint0_linear_1_465" x1="14.6608" y1="50.9736" x2="42.7422" y2="-9.24717" gradientUnits="userSpaceOnUse">
<stop stop-color="#2600FC"/>
<stop offset="1" stop-color="#FF00EA"/>
</linearGradient>
</defs>
</svg>
