<svg width="63" height="63" viewBox="0 0 63 63" fill="none" xmlns="http://www.w3.org/2000/svg">
<rect x="14.6608" y="0.973633" width="50" height="50" rx="25" transform="rotate(16 14.6608 0.973633)" fill="url(#paint0_linear_1_492)"/>
<path d="M28.6471 12.5943C29.546 12.8521 30.3676 13.2508 31.1117 13.7905C31.8616 14.3319 32.469 15.0263 32.9341 15.8739C33.4048 16.7231 33.6741 17.7485 33.7421 18.9502C33.8174 20.1477 33.6311 21.5382 33.1833 23.1214C32.7575 24.6063 32.2095 25.8838 31.5394 26.9539C30.8766 28.0199 30.1185 28.8707 29.2651 29.5065C28.4117 30.1422 27.4857 30.5478 26.4872 30.7233C25.4904 30.8931 24.4515 30.823 23.3705 30.513C22.2042 30.1786 21.2389 29.6586 20.4745 28.953C19.7118 28.2417 19.1691 27.4181 18.8464 26.482C18.5311 25.5419 18.4568 24.5663 18.6236 23.5551L22.2676 24.6C22.2271 25.278 22.3839 25.8586 22.7379 26.3418C23.0935 26.8194 23.607 27.1544 24.2783 27.3469C25.4162 27.6732 26.4229 27.4262 27.2984 26.6059C28.1756 25.78 28.865 24.503 29.3667 22.7751L29.2472 22.7409C28.8386 23.1778 28.3595 23.5176 27.8097 23.7602C27.2615 23.997 26.6716 24.1327 26.0398 24.167C25.4138 24.203 24.7794 24.1288 24.1365 23.9445C23.1067 23.6492 22.2572 23.1439 21.588 22.4287C20.9188 21.7134 20.4725 20.8651 20.249 19.8836C20.0256 18.9021 20.0696 17.8681 20.3812 16.7814C20.7116 15.6078 21.2812 14.6413 22.09 13.8819C22.8989 13.1226 23.8668 12.6243 24.9938 12.3872C26.1281 12.146 27.3459 12.2151 28.6471 12.5943ZM27.8407 15.5032C27.2661 15.3384 26.7149 15.3282 26.1871 15.4724C25.6651 15.6182 25.2071 15.884 24.8133 16.2698C24.4251 16.6572 24.1523 17.1362 23.9949 17.7068C23.8301 18.2814 23.8068 18.835 23.925 19.3676C24.0505 19.8962 24.2931 20.3598 24.6529 20.7585C25.02 21.1531 25.488 21.432 26.0569 21.5952C26.4836 21.7175 26.9019 21.7513 27.3117 21.6964C27.7215 21.6415 28.1 21.513 28.4474 21.3109C28.802 21.1047 29.1092 20.8388 29.3688 20.513C29.6285 20.1873 29.8178 19.8167 29.9369 19.4014C30.0895 18.8479 30.1038 18.304 29.9799 17.7698C29.8561 17.2355 29.6094 16.7646 29.2398 16.3569C28.8703 15.9493 28.404 15.6647 27.8407 15.5032ZM39.4228 35.1159C38.2167 34.7701 37.205 34.2399 36.3879 33.5253C35.5764 32.8124 35.0064 31.987 34.6781 31.0494C34.3497 30.1117 34.3185 29.1361 34.5845 28.1226L38.1688 29.1503C38.0145 29.8388 38.1415 30.4694 38.5499 31.0421C38.9583 31.6148 39.5266 32.0056 40.2548 32.2144C40.8351 32.3808 41.3839 32.3996 41.901 32.2708C42.4255 32.138 42.879 31.8771 43.2615 31.488C43.6513 31.0949 43.9326 30.5968 44.1056 29.9938C44.2818 29.3793 44.3059 28.8013 44.1779 28.2597C44.0557 27.7198 43.8045 27.2537 43.4244 26.8615C43.0443 26.4693 42.5621 26.1863 41.9777 26.0126C41.4657 25.8658 40.9377 25.8283 40.3937 25.9001C39.8555 25.9736 39.4005 26.1541 39.0287 26.4415L35.9119 24.9105L39.3826 15.9313L50.067 18.995L49.2008 22.016L41.5629 19.8259L39.8553 24.0741L39.9577 24.1034C40.3889 23.7592 40.9553 23.5337 41.657 23.427C42.3587 23.3204 43.0936 23.3772 43.8617 23.5974C44.9142 23.8992 45.782 24.4159 46.465 25.1474C47.148 25.8789 47.6045 26.7456 47.8344 27.7474C48.066 28.7435 48.0182 29.8012 47.6911 30.9203C47.3591 32.0996 46.7859 33.0681 45.9714 33.8259C45.1642 34.5796 44.1934 35.077 43.0591 35.3182C41.9321 35.5553 40.72 35.4879 39.4228 35.1159Z" fill="white"/>
<path d="M27.5377 47.9339L27.7279 47.2703C27.8724 46.7665 28.1117 46.3342 28.4456 45.9733C28.7849 45.6096 29.1958 45.3594 29.6782 45.2229C30.1659 45.0835 30.7068 45.0989 31.3007 45.2692C31.9029 45.4419 32.3724 45.714 32.7092 46.0854C33.0501 46.458 33.2639 46.8872 33.3507 47.3732C33.4427 47.8562 33.4159 48.3516 33.2702 48.8596L33.0799 49.5232C32.9355 50.027 32.6956 50.4614 32.3605 50.8263C32.0265 51.1872 31.6162 51.4353 31.1297 51.5706C30.6419 51.71 30.1011 51.6946 29.5071 51.5243C28.905 51.3516 28.4361 51.0775 28.1005 50.702C27.7637 50.3306 27.5492 49.9033 27.4572 49.4203C27.3664 48.9333 27.3932 48.4378 27.5377 47.9339ZM29.516 47.7831L29.3257 48.4467C29.2423 48.7375 29.2332 49.0319 29.2985 49.3299C29.3679 49.6291 29.5889 49.8321 29.9617 49.939C30.3345 50.0459 30.6249 49.9917 30.8329 49.7765C31.045 49.5625 31.1939 49.306 31.2796 49.0069L31.4699 48.3433C31.5556 48.0443 31.57 47.747 31.5129 47.4513C31.4558 47.1557 31.2347 46.9526 30.8497 46.8422C30.481 46.7365 30.188 46.7921 29.9706 47.0091C29.7533 47.226 29.6017 47.484 29.516 47.7831ZM23.1448 38.8809L23.3351 38.2173C23.4807 37.7094 23.7226 37.2756 24.0607 36.9159C24.3999 36.5522 24.8108 36.302 25.2932 36.1655C25.7798 36.0302 26.316 36.0465 26.9017 36.2145C27.508 36.3883 27.9795 36.6609 28.3163 37.0324C28.6531 37.4038 28.8669 37.8331 28.9578 38.3201C29.0498 38.8031 29.023 39.2986 28.8774 39.8066L28.6871 40.4702C28.5414 40.9781 28.2996 41.4119 27.9615 41.7716C27.6275 42.1324 27.2172 42.3805 26.7307 42.5158C26.2494 42.6482 25.7097 42.6287 25.1117 42.4572C24.5136 42.2857 24.0441 42.0137 23.7032 41.6411C23.3676 41.2655 23.1532 40.8383 23.06 40.3594C22.972 39.8776 23.0003 39.3848 23.1448 38.8809ZM25.1354 38.7336L24.9451 39.3972C24.8594 39.6962 24.8497 39.9927 24.9162 40.2866C24.9867 40.5816 25.2022 40.7809 25.5627 40.8842C25.9396 40.9923 26.232 40.9387 26.44 40.7235C26.6521 40.5095 26.801 40.2529 26.8868 39.9539L27.077 39.2903C27.1628 38.9913 27.1771 38.694 27.12 38.3983C27.0629 38.1026 26.8398 37.899 26.4507 37.7874C26.0861 37.6829 25.7966 37.7417 25.5822 37.964C25.3677 38.1862 25.2188 38.4427 25.1354 38.7336ZM21.2144 48.6742L33.4741 38.5712L35.0839 39.0328L22.8242 49.1358L21.2144 48.6742Z" fill="white"/>
<defs>
<linearGradient id="paint0_linear_1_492" x1="14.6608" y1="50.9736" x2="42.7422" y2="-9.24717" gradientUnits="userSpaceOnUse">
<stop stop-color="#2600FC"/>
<stop offset="1" stop-color="#FF00EA"/>
</linearGradient>
</defs>
</svg>
